<svg width="428" height="144" viewBox="0 0 428 144" fill="none" xmlns="http://www.w3.org/2000/svg">
<path d="M30.674 58.1735C28.3732 58.1735 26.4706 57.377 24.9663 55.7842C23.5504 54.1028 22.8424 51.9348 22.8424 49.28C22.8424 46.2712 23.8159 43.3067 25.7627 40.3865L27.0901 41.1829C26.7361 42.1563 26.5591 43.0855 26.5591 43.9704C26.5591 45.6518 27.0901 46.9349 28.152 47.8199C29.3024 48.7048 30.7183 49.1472 32.3996 49.1472C33.727 49.1472 34.8774 48.8818 35.8508 48.3508C36.8242 47.7314 37.4879 47.0677 37.8419 46.3597C37.4879 45.5633 36.8242 44.6341 35.8508 43.5722C34.9659 42.5103 34.0367 41.6254 33.0633 40.9174L36.78 35.077C39.4348 37.9087 40.7621 41.2714 40.7621 45.1651C40.7621 48.7933 39.7887 51.8905 37.8419 54.4568C35.9836 56.9346 33.5943 58.1735 30.674 58.1735Z" fill="#0E0E11" fill-opacity="0.85"/>
<path d="M41.8126 95.1522C43.5825 96.9221 45.0869 99.5326 46.3258 102.984C47.5646 106.346 48.1841 109.532 48.1841 112.541C48.1841 117.585 46.9452 122.585 44.4674 127.54C41.9896 132.408 38.6712 136.39 34.512 139.487C30.3529 142.496 25.9283 144 21.2382 144C17.787 144 14.6897 143.027 11.9465 141.08C9.2917 139.133 7.52185 136.655 6.63693 133.646C6.9909 129.31 8.1413 124.001 10.0881 117.718C6.63693 119.222 3.49545 120.815 0.663693 122.496C0.221231 119.134 0 115.771 0 112.408C0 107.541 0.398216 103.647 1.19465 100.727C4.55736 98.4264 9.24745 96.3911 15.2649 94.6213C21.2824 92.7629 26.5477 91.8337 31.0608 91.8337C36.0164 91.8337 39.6003 92.9399 41.8126 95.1522ZM22.1673 123.824C26.6804 123.824 30.9281 122.585 34.9102 120.107C38.8924 117.629 41.3702 114.798 42.3436 111.612C40.9277 111.258 39.2464 111.081 37.2995 111.081C31.5475 111.081 24.4239 112.541 15.9286 115.461C15.3977 117.497 14.9995 119.532 14.734 121.567C16.5038 123.072 18.9816 123.824 22.1673 123.824ZM16.1941 72.7194L40.2198 66.2152L37.565 79.8873L13.9375 85.0641L16.1941 72.7194Z" fill="#0E0E11" fill-opacity="0.85"/>
<path d="M56.9065 140.947C56.995 132.452 56.7737 122.187 56.2428 110.152C55.7118 98.0282 55.0039 87.2764 54.1189 77.8962C56.5967 74.8875 59.3843 72.0115 62.4815 69.2682C65.5787 66.5249 68.3662 64.4896 70.844 63.1622C71.375 65.1091 71.6404 68.9585 71.6404 74.7105C71.6404 82.5863 71.2422 91.9665 70.4458 102.851C69.6494 113.647 68.9857 120.019 68.4547 121.965L59.8267 142.009L56.9065 140.947Z" fill="#0E0E11" fill-opacity="0.85"/>
<path d="M92.5613 72.7392L118.976 61.9873L119.374 66.6332L93.3577 75.9249L92.5613 72.7392Z" fill="#0E0E11" fill-opacity="0.85"/>
<path d="M122.09 95.8848L120.786 109.563L120.493 112.646L116.579 113.072C115.517 118.647 113.614 123.824 110.871 128.602C108.216 133.292 104.853 137.053 100.783 139.885C96.8006 142.628 92.376 144 87.5089 144C83.5268 144 78.9252 143.027 73.7041 141.08C68.4831 139.044 64.6336 136.832 62.1559 134.443C69.1468 132.408 76.9341 129.841 85.5178 126.744C94.1901 123.558 101.314 120.682 106.889 118.116L106.092 113.47H99.8536C96.4909 113.47 93.7919 112.983 91.7565 112.01C89.7212 110.948 88.7036 109.488 88.7036 107.63C88.7036 105.417 89.8982 102.453 92.2875 98.7362C94.6768 95.0195 97.5086 91.7453 100.783 88.9135C104.057 85.9932 106.889 84.5331 109.278 84.5331C110.871 84.5331 112.287 85.3296 113.526 86.9224C114.765 88.5153 115.738 90.7276 116.446 93.5594L122.375 92.8957L122.09 95.8848Z" fill="#0E0E11" fill-opacity="0.85"/>
<path d="M122.448 22.4486L148.863 11.6968L149.261 16.3426L123.245 25.6343L122.448 22.4486Z" fill="#0E0E11" fill-opacity="0.85"/>
<path d="M137.241 62.1003C139.985 64.2241 142.374 67.1444 144.409 70.8611C146.533 74.4892 147.595 77.675 147.595 80.4182C147.595 83.6925 146.71 87.9401 144.94 93.1611C143.259 98.2937 141.4 102.32 139.365 105.24C136.976 106.922 133.525 108.515 129.011 110.019C124.498 111.523 125.537 112.116 120.493 112.646L122.375 92.8957L138.17 91.3028C135.25 87.2321 130.118 82.6748 122.773 77.6307L137.241 62.1003ZM130.737 54.9324C127.64 52.5431 124.543 48.738 121.445 43.5169L133.79 35.2871L135.648 38.3401C138.126 42.4108 140.206 45.508 141.887 47.6318L130.737 54.9324Z" fill="#0E0E11" fill-opacity="0.85"/>
<path d="M226.172 94.356L220.3 109.746L219.135 112.799L217.056 113.072C215.994 118.647 214.091 123.824 211.348 128.602C208.693 133.292 205.33 137.053 201.26 139.885C197.277 142.628 192.853 144 187.986 144C184.004 144 179.402 143.027 174.181 141.08C168.96 139.044 165.11 136.832 162.633 134.443C169.624 132.408 177.411 129.841 185.995 126.744C194.667 123.558 201.791 120.682 207.366 118.116L206.569 113.47H200.33C196.968 113.47 194.269 112.983 192.233 112.01C190.198 110.948 189.18 109.488 189.18 107.63C189.18 105.417 190.375 102.453 192.764 98.7362C195.154 95.0195 197.985 91.7453 201.26 88.9135C204.534 85.9932 207.366 84.5331 209.755 84.5331C211.348 84.5331 212.764 85.3296 214.003 86.9224C215.241 88.5153 216.215 90.7276 216.923 93.5594L226.834 92.6232L226.172 94.356Z" fill="#0E0E11" fill-opacity="0.85"/>
<path d="M241.7 61.8279C244.444 63.9517 246.833 66.8719 248.868 70.5886C250.992 74.2168 252.054 77.4025 252.054 80.1458C252.054 83.42 251.169 87.6676 249.399 92.8887C247.718 98.0213 245.859 102.048 243.824 104.968C241.435 106.649 237.984 108.242 233.47 109.746C228.957 111.251 224.179 112.269 219.135 112.799L226.834 92.6232L242.629 91.0303C239.709 86.9597 234.577 82.4023 227.232 77.3583L241.7 61.8279ZM220.993 125.941L245.019 119.436L242.364 133.108L218.736 138.285L220.993 125.941Z" fill="#0E0E11" fill-opacity="0.85"/>
<path d="M324.314 120.885L318.924 135.01L317.709 138.196L309.313 139.089L307.189 117.718C305.685 120.903 303.826 124.355 301.614 128.071C299.402 131.7 297.543 134.31 296.039 135.903C291.26 141.212 285.464 143.867 278.65 143.867C274.668 143.867 269.978 142.894 264.58 140.947C259.271 138.912 255.333 136.699 252.766 134.31C261.527 131.832 270.686 128.779 280.243 125.151C289.889 121.434 297.189 118.204 302.145 115.461L316.879 97.5415L319.401 99.5326L321.259 118.514L325.407 118.019L324.314 120.885Z" fill="#0E0E11" fill-opacity="0.85"/>
<path d="M350.946 117.385L344.841 133.385L344.075 135.392L333.505 136.47L335.097 131.028C332.089 134.921 326.292 137.311 317.709 138.196L325.407 118.019C331.602 117.4 336.558 116.117 340.274 114.17L343.194 104.48L347.442 104.878L345.053 115.895L351.774 115.215L350.946 117.385ZM334.168 80.4542L358.194 73.9501L355.539 87.6221L331.912 92.7989L334.168 80.4542Z" fill="#0E0E11" fill-opacity="0.85"/>
<path d="M351.774 115.215C366.021 113.711 381.286 110.924 397.569 106.853L399.427 109.508L391.994 131.277L388.144 130.746L389.471 124.109C383.012 126.764 375.799 129.109 367.835 131.144C359.959 133.179 352.039 134.595 344.075 135.392L351.774 115.215Z" fill="#0E0E11" fill-opacity="0.85"/>
<path d="M421.862 14.4685C423.455 14.4685 425.18 14.2915 427.039 13.9376L424.118 22.4328C423.587 22.6098 422.924 22.6983 422.127 22.6983C420.534 22.6983 418.764 22.2558 416.818 21.3709C413.809 24.2027 411.021 25.7513 408.455 26.0168C406.42 25.8398 404.163 25.1318 401.685 23.8929C399.296 22.654 397.615 21.3267 396.641 19.9108C401.243 18.9374 406.11 17.787 411.243 16.4596C410.269 14.9552 409.782 13.3181 409.782 11.5483C409.782 10.2209 410.136 8.53952 410.844 6.50419C411.641 4.46887 412.393 3.00874 413.101 2.12382C413.72 1.50437 414.517 1.01766 415.49 0.663692C416.552 0.221231 417.526 0 418.41 0C420.003 0 421.331 0.575201 422.393 1.7256C423.455 2.876 423.986 4.55736 423.986 6.76967C423.986 9.07047 423.278 11.6367 421.862 14.4685ZM415.888 8.76075C414.473 8.76075 413.322 9.11472 412.437 9.82265C413.676 12.3889 415.977 13.8933 419.34 14.3358C419.34 10.6191 418.189 8.76075 415.888 8.76075Z" fill="#0E0E11" fill-opacity="0.85"/>
<path d="M401.503 140.947C401.591 132.452 401.37 122.187 400.839 110.152C400.308 98.0282 399.6 87.2764 398.715 77.8962C401.193 74.8875 403.981 72.0115 407.078 69.2682C410.175 66.5249 412.963 64.4896 415.44 63.1622C415.971 65.1091 416.237 68.9585 416.237 74.7105C416.237 82.5863 415.839 91.9665 415.042 102.851C414.246 113.647 413.582 120.019 413.051 121.965L404.423 142.009L401.503 140.947ZM422.21 49.4901L414.91 57.4545L396.061 62.4985L394.468 61.0384L402.034 54.7997C399.202 52.5874 397.786 49.9769 397.786 46.9681C397.786 43.7824 399.025 41.0391 401.503 38.7383C404.069 36.349 407.299 35.1544 411.193 35.1544C412.609 35.1544 414.157 35.3314 415.839 35.6853C417.52 36.0393 418.892 36.4818 419.954 37.0127L414.91 46.5699C413.936 46.0389 412.609 45.5522 410.927 45.1098C409.246 44.6673 407.653 44.4461 406.149 44.4461C404.821 44.4461 403.759 44.6673 402.963 45.1098C402.167 45.4637 401.768 45.9505 401.768 46.5699C401.768 47.4548 402.698 48.2955 404.556 49.0919C406.503 49.7999 408.627 50.1538 410.927 50.1538C414.733 50.1538 417.963 49.4902 420.617 48.1628L422.21 49.4901Z" fill="#0E0E11" fill-opacity="0.85"/>
<path d="M357.132 53.2068C358.725 53.2068 360.45 53.0298 362.309 52.6759L359.389 61.1711C358.858 61.3481 358.194 61.4366 357.397 61.4366C355.805 61.4366 354.035 60.9942 352.088 60.1092C349.079 62.941 346.292 64.4896 343.725 64.7551C341.69 64.5781 339.434 63.8702 336.956 62.6313C334.566 61.3924 332.885 60.065 331.912 58.6491C336.513 57.6757 341.38 56.5253 346.513 55.1979C345.539 53.6935 345.053 52.0564 345.053 50.2866C345.053 48.9592 345.407 47.2778 346.115 45.2425C346.911 43.2072 347.663 41.7471 348.371 40.8621C348.991 40.2427 349.787 39.756 350.76 39.402C351.822 38.9596 352.796 38.7383 353.681 38.7383C355.274 38.7383 356.601 39.3135 357.663 40.4639C358.725 41.6143 359.256 43.2957 359.256 45.508C359.256 47.8088 358.548 50.3751 357.132 53.2068ZM351.159 47.4991C349.743 47.4991 348.592 47.853 347.708 48.561C348.946 51.1273 351.247 52.6316 354.61 53.0741C354.61 49.3574 353.46 47.4991 351.159 47.4991Z" fill="#0E0E11" fill-opacity="0.85"/>
<path d="M237.453 44.2359C239.046 44.2359 240.771 44.0589 242.629 43.705L239.709 52.2002C239.178 52.3772 238.515 52.4657 237.718 52.4657C236.125 52.4657 234.355 52.0232 232.409 51.1383C229.4 53.9701 226.612 55.5187 224.046 55.7842C222.011 55.6072 219.754 54.8992 217.276 53.6604C214.887 52.4215 213.206 51.0941 212.232 49.6782C216.834 48.7048 221.701 47.5544 226.834 46.227C225.86 44.7226 225.373 43.0855 225.373 41.3157C225.373 39.9883 225.727 38.3069 226.435 36.2716C227.232 34.2363 227.984 32.7762 228.692 31.8912C229.311 31.2718 230.108 30.7851 231.081 30.4311C232.143 29.9886 233.117 29.7674 234.001 29.7674C235.594 29.7674 236.922 30.3426 237.984 31.493C239.046 32.6434 239.576 34.3248 239.576 36.5371C239.576 38.8379 238.869 41.4042 237.453 44.2359ZM231.479 38.5282C230.064 38.5282 228.913 38.8821 228.028 39.5901C229.267 42.1563 231.568 43.6607 234.931 44.1032C234.931 40.3865 233.78 38.5282 231.479 38.5282Z" fill="#0E0E11" fill-opacity="0.85"/>
</svg>
