<svg width="600" height="600" viewBox="0 0 600 600" fill="none" xmlns="http://www.w3.org/2000/svg">
<rect width="600" height="600" fill="#F5F5F5"/>
<path d="M393.642 189.987L445.202 169L445.98 178.068L395.196 196.205L393.642 189.987Z" fill="#0E0E11" fill-opacity="0.85"/>
<path d="M417.595 254.503C411.549 249.839 405.503 242.412 399.458 232.22L423.554 216.156L427.181 222.116C432.018 230.061 436.077 236.107 439.359 240.253L417.595 254.503Z" fill="#0E0E11" fill-opacity="0.85"/>
<path d="M430.29 268.494C435.645 272.64 440.309 278.34 444.282 285.595C448.427 292.677 450.5 298.895 450.5 304.25C450.5 310.641 448.773 318.932 445.318 329.124C442.036 339.142 438.409 347.001 434.436 352.702C429.772 355.984 423.036 359.093 414.226 362.029C405.417 364.966 396.176 367.47 386.33 368.507L374.412 369.802C372.339 380.684 368.625 390.789 363.271 400.117C358.089 409.272 351.525 416.613 343.579 422.14C335.806 427.495 327.169 430.172 317.669 430.172C309.896 430.172 300.914 428.272 290.723 424.472C280.532 420.499 273.018 416.181 268.181 411.517C281.827 407.544 297.028 402.535 313.783 396.489C330.71 390.271 344.615 384.657 355.498 379.648L353.943 370.579H341.765C335.202 370.579 329.933 369.629 325.96 367.729C321.987 365.656 320.001 362.806 320.001 359.179C320.001 354.861 322.333 349.074 326.997 341.819C331.661 334.565 337.188 328.173 343.579 322.646C349.97 316.946 355.498 314.096 360.161 314.096C363.271 314.096 366.034 315.65 368.453 318.76C370.871 321.869 372.771 326.187 374.153 331.714L401.271 328.605L432.104 325.496C426.404 317.55 416.385 308.655 402.049 298.809L430.29 268.494Z" fill="#0E0E11" fill-opacity="0.85"/>
<path d="M319.758 290.172L371.319 269.185L372.096 278.254L321.312 296.39L319.758 290.172Z" fill="#0E0E11" fill-opacity="0.85"/>
<path d="M269.351 391.271C269.524 374.688 269.092 354.651 268.056 331.16C267.019 307.495 265.637 286.508 263.91 268.199C268.747 262.326 274.188 256.712 280.233 251.357C286.279 246.002 291.72 242.029 296.557 239.438C297.593 243.239 298.111 250.752 298.111 261.98C298.111 277.353 297.334 295.663 295.779 316.909C294.225 337.983 292.929 350.419 291.893 354.22L275.051 393.344L269.351 391.271Z" fill="#0E0E11" fill-opacity="0.85"/>
<path d="M232.116 301.882C235.571 305.336 238.507 310.432 240.926 317.169C243.344 323.732 244.553 329.951 244.553 335.824C244.553 345.669 242.135 355.429 237.298 365.102C232.462 374.602 225.984 382.375 217.866 388.421C209.747 394.294 201.111 397.23 191.956 397.23C185.219 397.23 179.174 395.33 173.819 391.53C168.637 387.73 165.182 382.893 163.455 377.02C164.146 368.557 166.391 358.193 170.192 345.929C163.455 348.865 157.323 351.974 151.795 355.256C150.932 348.692 150.5 342.128 150.5 335.565C150.5 326.064 151.277 318.464 152.832 312.764C159.396 308.273 168.551 304.3 180.296 300.845C192.042 297.218 202.32 295.404 211.129 295.404C220.802 295.404 227.798 297.563 232.116 301.882ZM193.77 357.847C202.579 357.847 210.87 355.429 218.643 350.592C226.416 345.756 231.253 340.228 233.153 334.01C230.389 333.319 227.107 332.974 223.307 332.974C212.079 332.974 198.174 335.824 181.592 341.524C180.556 345.497 179.778 349.47 179.26 353.442C182.715 356.379 187.551 357.847 193.77 357.847ZM182.11 258.094L229.007 245.398L223.825 272.085L177.705 282.19L182.11 258.094Z" fill="#0E0E11" fill-opacity="0.85"/>
<path d="M202.601 227.866C198.11 227.866 194.396 226.311 191.46 223.202C188.696 219.92 187.314 215.688 187.314 210.506C187.314 204.633 189.214 198.846 193.014 193.146L195.605 194.701C194.914 196.601 194.569 198.415 194.569 200.142C194.569 203.424 195.605 205.928 197.678 207.656C199.923 209.383 202.687 210.247 205.969 210.247C208.56 210.247 210.806 209.729 212.706 208.692C214.606 207.483 215.901 206.188 216.592 204.806C215.901 203.251 214.606 201.437 212.706 199.365C210.978 197.292 209.165 195.564 207.265 194.183L214.519 182.782C219.701 188.31 222.292 194.874 222.292 202.474C222.292 209.556 220.392 215.601 216.592 220.611C212.965 225.447 208.301 227.866 202.601 227.866Z" fill="#0E0E11" fill-opacity="0.85"/>
</svg>
