<svg width="600" height="600" viewBox="0 0 600 600" fill="none" xmlns="http://www.w3.org/2000/svg">
<path d="M393.142 170.617L444.702 149.63L445.48 158.698L394.696 176.835L393.142 170.617Z" fill="#F5F5F5" fill-opacity="0.85"/>
<path d="M417.095 235.133C411.049 230.469 405.003 223.042 398.958 212.85L423.054 196.786L426.681 202.745C431.518 210.691 435.577 216.737 438.859 220.882L417.095 235.133Z" fill="#F5F5F5" fill-opacity="0.85"/>
<path d="M429.79 249.124C435.145 253.27 439.809 258.97 443.782 266.225C447.927 273.307 450 279.525 450 284.88C450 291.271 448.273 299.562 444.818 309.753C441.536 319.772 437.909 327.631 433.936 333.332C429.272 336.613 422.536 339.723 413.726 342.659C404.917 345.596 395.676 348.1 385.83 349.136L373.912 350.432C371.839 361.314 368.125 371.419 362.771 380.747C357.589 389.901 351.025 397.243 343.079 402.77C335.306 408.125 326.669 410.802 317.169 410.802C309.396 410.802 300.414 408.902 290.223 405.102C280.032 401.129 272.518 396.811 267.681 392.147C281.327 388.174 296.528 383.165 313.283 377.119C330.21 370.901 344.115 365.287 354.998 360.278L353.443 351.209H341.265C334.702 351.209 329.433 350.259 325.46 348.359C321.487 346.286 319.501 343.436 319.501 339.809C319.501 335.491 321.833 329.704 326.497 322.449C331.161 315.194 336.688 308.803 343.079 303.276C349.47 297.576 354.998 294.726 359.661 294.726C362.771 294.726 365.534 296.28 367.953 299.389C370.371 302.499 372.271 306.817 373.653 312.344L400.771 309.235L431.604 306.126C425.904 298.18 415.885 289.285 401.549 279.439L429.79 249.124Z" fill="#F5F5F5" fill-opacity="0.85"/>
<path d="M319.258 270.802L370.819 249.815L371.596 258.883L320.812 277.02L319.258 270.802Z" fill="#F5F5F5" fill-opacity="0.85"/>
<path d="M268.851 371.901C269.024 355.318 268.592 335.281 267.556 311.79C266.519 288.125 265.137 267.138 263.41 248.828C268.247 242.955 273.688 237.342 279.733 231.987C285.779 226.632 291.22 222.659 296.057 220.068C297.093 223.868 297.611 231.382 297.611 242.61C297.611 257.983 296.834 276.293 295.279 297.539C293.725 318.613 292.429 331.049 291.393 334.849L274.551 373.973L268.851 371.901Z" fill="#F5F5F5" fill-opacity="0.85"/>
<path d="M231.616 282.512C235.071 285.966 238.007 291.062 240.426 297.798C242.844 304.362 244.053 310.581 244.053 316.454C244.053 326.299 241.635 336.059 236.798 345.732C231.962 355.232 225.484 363.005 217.366 369.051C209.247 374.924 200.611 377.86 191.456 377.86C184.719 377.86 178.674 375.96 173.319 372.16C168.137 368.36 164.682 363.523 162.955 357.65C163.646 349.186 165.891 338.822 169.692 326.558C162.955 329.495 156.823 332.604 151.295 335.886C150.432 329.322 150 322.758 150 316.194C150 306.694 150.777 299.094 152.332 293.394C158.896 288.903 168.051 284.93 179.796 281.475C191.542 277.848 201.82 276.034 210.629 276.034C220.302 276.034 227.298 278.193 231.616 282.512ZM193.27 338.477C202.079 338.477 210.37 336.059 218.143 331.222C225.916 326.386 230.753 320.858 232.653 314.64C229.889 313.949 226.607 313.603 222.807 313.603C211.579 313.603 197.674 316.454 181.092 322.154C180.056 326.127 179.278 330.099 178.76 334.072C182.215 337.009 187.051 338.477 193.27 338.477ZM181.61 238.724L228.507 226.028L223.325 252.715L177.205 262.82L181.61 238.724Z" fill="#F5F5F5" fill-opacity="0.85"/>
<path d="M202.101 208.495C197.61 208.495 193.896 206.941 190.96 203.832C188.196 200.55 186.814 196.318 186.814 191.136C186.814 185.263 188.714 179.476 192.514 173.776L195.105 175.331C194.414 177.231 194.069 179.044 194.069 180.772C194.069 184.054 195.105 186.558 197.178 188.286C199.423 190.013 202.187 190.877 205.469 190.877C208.06 190.877 210.306 190.358 212.206 189.322C214.106 188.113 215.401 186.817 216.092 185.436C215.401 183.881 214.106 182.067 212.206 179.994C210.478 177.922 208.665 176.194 206.765 174.812L214.019 163.412C219.201 168.94 221.792 175.503 221.792 183.104C221.792 190.186 219.892 196.231 216.092 201.241C212.465 206.077 207.801 208.495 202.101 208.495Z" fill="#F5F5F5" fill-opacity="0.85"/>
</svg>
